<svg width="579" height="841" viewBox="0 0 579 841" fill="none" xmlns="http://www.w3.org/2000/svg">
<path fill-rule="evenodd" clip-rule="evenodd" d="M299 70C299 50.67 305.834 34.1709 319.503 20.5025C333.171 6.83417 349.67 0 369 0C388.33 0 404.829 6.83417 418.497 20.5025C432.166 34.1709 439 50.67 439 70C439 89.33 432.166 105.829 418.497 119.497C404.829 133.166 388.33 140 369 140C349.67 140 333.171 133.166 319.503 119.497C305.834 105.829 299 89.33 299 70Z" fill="#7D9CAB"/>
<path fill-rule="evenodd" clip-rule="evenodd" d="M299 491C299 471.67 305.834 455.171 319.503 441.503C333.171 427.834 349.67 421 369 421C388.33 421 404.829 427.834 418.497 441.503C432.166 455.171 439 471.67 439 491C439 510.33 432.166 526.829 418.497 540.497C404.829 554.166 388.33 561 369 561C349.67 561 333.171 554.166 319.503 540.497C305.834 526.829 299 510.33 299 491Z" fill="#7D9CAB"/>
<path fill-rule="evenodd" clip-rule="evenodd" d="M509 0H579V140H439V70C439 31.3401 470.34 0 509 0Z" fill="#F8BA90"/>
<path fill-rule="evenodd" clip-rule="evenodd" d="M509 421H579V561H439V491C439 452.34 470.34 421 509 421Z" fill="#F8BA90"/>
<path fill-rule="evenodd" clip-rule="evenodd" d="M508 280C546.66 280 578 311.34 578 350V420H438V350C438 311.34 469.34 280 508 280Z" fill="#CEEAF7"/>
<path fill-rule="evenodd" clip-rule="evenodd" d="M508 701C546.66 701 578 732.34 578 771V841H438V771C438 732.34 469.34 701 508 701Z" fill="#CEEAF7"/>
<path fill-rule="evenodd" clip-rule="evenodd" d="M298 280H368C406.66 280 438 311.34 438 350V420H368C329.34 420 298 388.66 298 350V280Z" fill="#F8BA90"/>
<path fill-rule="evenodd" clip-rule="evenodd" d="M298 701H368C406.66 701 438 732.34 438 771V841H368C329.34 841 298 809.66 298 771V701Z" fill="#F8BA90"/>
<path fill-rule="evenodd" clip-rule="evenodd" d="M439 140H579V280H509C470.34 280 439 248.66 439 210V140Z" fill="#7D9CAB"/>
<path fill-rule="evenodd" clip-rule="evenodd" d="M439 561H579V701H509C470.34 701 439 669.66 439 631V561Z" fill="#7D9CAB"/>
<path fill-rule="evenodd" clip-rule="evenodd" d="M299 140H439V210C439 248.66 407.66 280 369 280H299V140Z" fill="#CEEAF7"/>
<path fill-rule="evenodd" clip-rule="evenodd" d="M299 561H439V631C439 669.66 407.66 701 369 701H299V561Z" fill="#CEEAF7"/>
<path fill-rule="evenodd" clip-rule="evenodd" d="M140 70C140 50.67 146.834 34.1709 160.503 20.5025C174.171 6.83417 190.67 0 210 0C229.33 0 245.829 6.83417 259.497 20.5025C273.166 34.1709 280 50.67 280 70C280 89.33 273.166 105.829 259.497 119.497C245.829 133.166 229.33 140 210 140C190.67 140 174.171 133.166 160.503 119.497C146.834 105.829 140 89.33 140 70Z" fill="#7D9CAB"/>
<path fill-rule="evenodd" clip-rule="evenodd" d="M140 491C140 471.67 146.834 455.171 160.503 441.503C174.171 427.834 190.67 421 210 421C229.33 421 245.829 427.834 259.497 441.503C273.166 455.171 280 471.67 280 491C280 510.33 273.166 526.829 259.497 540.497C245.829 554.166 229.33 561 210 561C190.67 561 174.171 554.166 160.503 540.497C146.834 526.829 140 510.33 140 491Z" fill="#7D9CAB"/>
<path fill-rule="evenodd" clip-rule="evenodd" d="M0 0H70C108.66 0 140 31.3401 140 70V140H0V0Z" fill="#F8BA90"/>
<path fill-rule="evenodd" clip-rule="evenodd" d="M0 421H70C108.66 421 140 452.34 140 491V561H0V421Z" fill="#F8BA90"/>
<path fill-rule="evenodd" clip-rule="evenodd" d="M71 280C109.66 280 141 311.34 141 350V420H1V350C0.999992 311.34 32.3401 280 71 280Z" fill="#CEEAF7"/>
<path fill-rule="evenodd" clip-rule="evenodd" d="M71 701C109.66 701 141 732.34 141 771V841H1V771C0.999992 732.34 32.3401 701 71 701Z" fill="#CEEAF7"/>
<path fill-rule="evenodd" clip-rule="evenodd" d="M211 280H281V350C281 388.66 249.66 420 211 420H141V350C141 311.34 172.34 280 211 280Z" fill="#F8BA90"/>
<path fill-rule="evenodd" clip-rule="evenodd" d="M211 701H281V771C281 809.66 249.66 841 211 841H141V771C141 732.34 172.34 701 211 701Z" fill="#F8BA90"/>
<path fill-rule="evenodd" clip-rule="evenodd" d="M0 140H140V210C140 248.66 108.66 280 70 280H0V140Z" fill="#7D9CAB"/>
<path fill-rule="evenodd" clip-rule="evenodd" d="M0 561H140V631C140 669.66 108.66 701 70 701H0V561Z" fill="#7D9CAB"/>
<path fill-rule="evenodd" clip-rule="evenodd" d="M140 140H280V280H210C171.34 280 140 248.66 140 210V140Z" fill="#CEEAF7"/>
<path fill-rule="evenodd" clip-rule="evenodd" d="M140 561H280V701H210C171.34 701 140 669.66 140 631V561Z" fill="#CEEAF7"/>
</svg>
